<?xml version="1.0" encoding="utf-8"?>
<!-- Generator: Adobe Illustrator 16.0.0, SVG Export Plug-In . SVG Version: 6.00 Build 0)  -->
<!DOCTYPE svg PUBLIC "-//W3C//DTD SVG 1.1//EN" "http://www.w3.org/Graphics/SVG/1.1/DTD/svg11.dtd">
<svg version="1.1" id="Layer_1" xmlns="http://www.w3.org/2000/svg" xmlns:xlink="http://www.w3.org/1999/xlink" x="0px" y="0px"
	 width="127.76px" height="149.719px" viewBox="0 0 127.76 149.719" enable-background="new 0 0 127.76 149.719"
	 xml:space="preserve">
<g>
	<linearGradient id="SVGID_1_" gradientUnits="userSpaceOnUse" x1="0" y1="88.6943" x2="127.7168" y2="88.6943">
		<stop  offset="0" style="stop-color:#000000"/>
		<stop  offset="1" style="stop-color:#FFFFFF"/>
	</linearGradient>
	<path fill="url(#SVGID_1_)" d="M85.609,118.417c-21.018,7.355-45.321,2.634-62.12-14.165C2.642,83.405,0.411,51.011,16.761,27.671
		c-23.941,29.364-22.234,72.808,5.123,100.164c14.589,14.589,33.753,21.884,52.917,21.884c19.163,0,38.327-7.295,52.916-21.884
		l-21.213-21.213C100.528,112.598,93.271,116.527,85.609,118.417z"/>
</g>
<path fill="#FFFFFF" d="M106.547,43.096l21.213-21.213c-29.178-29.178-76.655-29.177-105.833,0
	c-1.821,1.821-3.529,3.714-5.123,5.669c-16.35,23.34-14.119,55.734,6.729,76.581c16.799,16.799,41.103,21.521,62.12,14.165
	c-14.752,3.64-31.006-0.289-42.513-11.795c-17.481-17.481-17.481-45.926,0-63.407C60.623,25.615,89.065,25.615,106.547,43.096z"/>
</svg>
